<?xml version="1.0" encoding="UTF-8" standalone="no"?>
<!DOCTYPE svg PUBLIC "-//W3C//DTD SVG 1.1//EN"
 "http://www.w3.org/Graphics/SVG/1.1/DTD/svg11.dtd">
<!-- Generated by graphviz version 3.0.0 (20220226.1711)
 -->
<!-- Title: dependencies Pages: 1 -->
<svg width="935pt" height="247pt"
 viewBox="0.00 0.00 935.00 246.80" xmlns="http://www.w3.org/2000/svg" xmlns:xlink="http://www.w3.org/1999/xlink">
<g id="graph0" class="graph" transform="scale(1 1) rotate(0) translate(4 242.8)">
<title>dependencies</title>
<polygon fill="white" stroke="transparent" points="-4,4 -4,-242.8 931,-242.8 931,4 -4,4"/>
<text text-anchor="middle" x="463.5" y="-8.2" font-family="sans-serif" font-size="14.00">dependencies</text>
<g id="clust1" class="cluster">
<title>cluster_AppModule</title>
<polygon fill="none" stroke="black" stroke-dasharray="1,5" points="8,-32.8 8,-230.8 919,-230.8 919,-32.8 8,-32.8"/>
</g>
<g id="clust2" class="cluster">
<title>cluster_AppModule_declarations</title>
<polygon fill="none" stroke="black" points="16,-40.8 16,-92.8 911,-92.8 911,-40.8 16,-40.8"/>
</g>
<g id="clust12" class="cluster">
<title>cluster_AppModule_bootstrap</title>
<polygon fill="none" stroke="black" points="406,-170.8 406,-222.8 530,-222.8 530,-170.8 406,-170.8"/>
</g>
<!-- AddComponent -->
<g id="node1" class="node">
<title>AddComponent</title>
<polygon fill="#ffffb3" stroke="black" points="902.94,-84.8 797.06,-84.8 797.06,-48.8 902.94,-48.8 902.94,-84.8"/>
<text text-anchor="middle" x="850" y="-62.6" font-family="Times,serif" font-size="14.00">AddComponent</text>
</g>
<!-- AppModule -->
<g id="node8" class="node">
<title>AppModule</title>
<polygon fill="#8dd3c7" stroke="black" points="509.66,-149.8 506.66,-153.8 485.66,-153.8 482.66,-149.8 426.34,-149.8 426.34,-113.8 509.66,-113.8 509.66,-149.8"/>
<text text-anchor="middle" x="468" y="-127.6" font-family="Times,serif" font-size="14.00">AppModule</text>
</g>
<!-- AddComponent&#45;&gt;AppModule -->
<g id="edge1" class="edge">
<title>AddComponent&#45;&gt;AppModule</title>
<path fill="none" stroke="black" d="M850,-85.09C850,-107.01 850,-140.8 850,-140.8 850,-140.8 519.97,-140.8 519.97,-140.8"/>
<polygon fill="black" stroke="black" points="519.97,-137.3 509.97,-140.8 519.97,-144.3 519.97,-137.3"/>
</g>
<!-- AppComponent -->
<g id="node2" class="node">
<title>AppComponent</title>
<polygon fill="#ffffb3" stroke="black" points="779.94,-84.8 674.06,-84.8 674.06,-48.8 779.94,-48.8 779.94,-84.8"/>
<text text-anchor="middle" x="727" y="-62.6" font-family="Times,serif" font-size="14.00">AppComponent</text>
</g>
<!-- AppComponent&#45;&gt;AppModule -->
<g id="edge2" class="edge">
<title>AppComponent&#45;&gt;AppModule</title>
<path fill="none" stroke="black" d="M727,-84.91C727,-104.14 727,-131.8 727,-131.8 727,-131.8 519.9,-131.8 519.9,-131.8"/>
<polygon fill="black" stroke="black" points="519.9,-128.3 509.9,-131.8 519.9,-135.3 519.9,-128.3"/>
</g>
<!-- DeleteComponent -->
<g id="node3" class="node">
<title>DeleteComponent</title>
<polygon fill="#ffffb3" stroke="black" points="655.86,-84.8 538.14,-84.8 538.14,-48.8 655.86,-48.8 655.86,-84.8"/>
<text text-anchor="middle" x="597" y="-62.6" font-family="Times,serif" font-size="14.00">DeleteComponent</text>
</g>
<!-- DeleteComponent&#45;&gt;AppModule -->
<g id="edge3" class="edge">
<title>DeleteComponent&#45;&gt;AppModule</title>
<path fill="none" stroke="black" d="M597,-84.83C597,-101.2 597,-122.8 597,-122.8 597,-122.8 519.88,-122.8 519.88,-122.8"/>
<polygon fill="black" stroke="black" points="519.88,-119.3 509.88,-122.8 519.88,-126.3 519.88,-119.3"/>
</g>
<!-- EditComponent -->
<g id="node4" class="node">
<title>EditComponent</title>
<polygon fill="#ffffb3" stroke="black" points="520.16,-84.8 415.84,-84.8 415.84,-48.8 520.16,-48.8 520.16,-84.8"/>
<text text-anchor="middle" x="468" y="-62.6" font-family="Times,serif" font-size="14.00">EditComponent</text>
</g>
<!-- EditComponent&#45;&gt;AppModule -->
<g id="edge4" class="edge">
<title>EditComponent&#45;&gt;AppModule</title>
<path fill="none" stroke="black" d="M468,-84.91C468,-84.91 468,-103.79 468,-103.79"/>
<polygon fill="black" stroke="black" points="464.5,-103.79 468,-113.79 471.5,-103.79 464.5,-103.79"/>
</g>
<!-- ListComponent -->
<g id="node5" class="node">
<title>ListComponent</title>
<polygon fill="#ffffb3" stroke="black" points="397.61,-84.8 294.39,-84.8 294.39,-48.8 397.61,-48.8 397.61,-84.8"/>
<text text-anchor="middle" x="346" y="-62.6" font-family="Times,serif" font-size="14.00">ListComponent</text>
</g>
<!-- ListComponent&#45;&gt;AppModule -->
<g id="edge5" class="edge">
<title>ListComponent&#45;&gt;AppModule</title>
<path fill="none" stroke="black" d="M346,-84.83C346,-101.2 346,-122.8 346,-122.8 346,-122.8 416.01,-122.8 416.01,-122.8"/>
<polygon fill="black" stroke="black" points="416.01,-126.3 426.01,-122.8 416.01,-119.3 416.01,-126.3"/>
</g>
<!-- MoreComponent -->
<g id="node6" class="node">
<title>MoreComponent</title>
<polygon fill="#ffffb3" stroke="black" points="276.66,-84.8 165.34,-84.8 165.34,-48.8 276.66,-48.8 276.66,-84.8"/>
<text text-anchor="middle" x="221" y="-62.6" font-family="Times,serif" font-size="14.00">MoreComponent</text>
</g>
<!-- MoreComponent&#45;&gt;AppModule -->
<g id="edge6" class="edge">
<title>MoreComponent&#45;&gt;AppModule</title>
<path fill="none" stroke="black" d="M221,-84.91C221,-104.14 221,-131.8 221,-131.8 221,-131.8 416.1,-131.8 416.1,-131.8"/>
<polygon fill="black" stroke="black" points="416.1,-135.3 426.1,-131.8 416.1,-128.3 416.1,-135.3"/>
</g>
<!-- Query1Component -->
<g id="node7" class="node">
<title>Query1Component</title>
<polygon fill="#ffffb3" stroke="black" points="147.82,-84.8 24.18,-84.8 24.18,-48.8 147.82,-48.8 147.82,-84.8"/>
<text text-anchor="middle" x="86" y="-62.6" font-family="Times,serif" font-size="14.00">Query1Component</text>
</g>
<!-- Query1Component&#45;&gt;AppModule -->
<g id="edge7" class="edge">
<title>Query1Component&#45;&gt;AppModule</title>
<path fill="none" stroke="black" d="M86,-85.09C86,-107.01 86,-140.8 86,-140.8 86,-140.8 416.03,-140.8 416.03,-140.8"/>
<polygon fill="black" stroke="black" points="416.03,-144.3 426.03,-140.8 416.03,-137.3 416.03,-144.3"/>
</g>
<!-- AppComponent  -->
<g id="node9" class="node">
<title>AppComponent </title>
<polygon fill="#80b1d3" stroke="black" points="522.44,-214.8 413.56,-214.8 413.56,-178.8 522.44,-178.8 522.44,-214.8"/>
<text text-anchor="middle" x="468" y="-192.6" font-family="Times,serif" font-size="14.00">AppComponent </text>
</g>
<!-- AppModule&#45;&gt;AppComponent  -->
<g id="edge8" class="edge">
<title>AppModule&#45;&gt;AppComponent </title>
<path fill="none" stroke="black" stroke-dasharray="1,5" d="M468,-149.91C468,-149.91 468,-168.79 468,-168.79"/>
<polygon fill="black" stroke="black" points="464.5,-168.79 468,-178.79 471.5,-168.79 464.5,-168.79"/>
</g>
</g>
</svg>
